<svg xmlns="http://www.w3.org/2000/svg" xmlns:xlink="http://www.w3.org/1999/xlink" width="245" zoomAndPan="magnify" viewBox="0 0 183.75 35.25" height="47" preserveAspectRatio="xMidYMid meet" version="1.0">
    <defs>
        <g />
        <clipPath id="2c1c482070">
            <path d="M 1.792969 0 L 36.355469 0 L 36.355469 34.515625 L 1.792969 34.515625 Z M 1.792969 0 " clip-rule="nonzero" />
        </clipPath>
        <clipPath id="af2dd041fb">
            <path d="M 5.246094 23 L 33 23 L 33 27 L 5.246094 27 Z M 5.246094 23 " clip-rule="nonzero" />
        </clipPath>
        <clipPath id="0e2de9e386">
            <path d="M 5.246094 24 L 33 24 L 33 28.105469 L 5.246094 28.105469 Z M 5.246094 24 " clip-rule="nonzero" />
        </clipPath>
        <clipPath id="d43b2b18cb">
            <path d="M 5.246094 11 L 11 11 L 11 25 L 5.246094 25 Z M 5.246094 11 " clip-rule="nonzero" />
        </clipPath>
        <clipPath id="56f5466ba7">
            <path d="M 15 7.515625 L 23 7.515625 L 23 26 L 15 26 Z M 15 7.515625 " clip-rule="nonzero" />
        </clipPath>
    </defs>
    <g clip-path="url(#2c1c482070)">
        <path fill="#ffffff" d="M 19.074219 0 C 9.527344 0 1.792969 7.738281 1.792969 17.28125 C 1.792969 26.824219 9.527344 34.5625 19.074219 34.5625 C 28.617188 34.5625 36.355469 26.824219 36.355469 17.28125 C 36.355469 7.738281 28.617188 0 19.074219 0 " fill-opacity="1" fill-rule="nonzero" />
    </g>
    <g fill="#f7941e" fill-opacity="1">
        <g transform="translate(89.220751, 26.797122)">
            <g>
                <path d="M 15.558594 -20.328125 L 10.226562 -4.925781 L 4.894531 -20.328125 L 0.421875 -20.328125 L 7.890625 0 L 12.535156 0 L 20.046875 -20.328125 Z M 15.558594 -20.328125 " />
            </g>
        </g>
    </g>
    <g fill="#ffffff" fill-opacity="1">
        <g transform="translate(109.684834, 26.797122)">
            <g>
                <path d="M 4.164062 -16.628906 C 5.417969 -16.628906 6.484375 -17.667969 6.484375 -18.964844 C 6.484375 -20.246094 5.417969 -21.285156 4.164062 -21.285156 C 2.882812 -21.285156 1.816406 -20.246094 1.816406 -18.964844 C 1.816406 -17.667969 2.882812 -16.628906 4.164062 -16.628906 Z M 2.097656 0 L 6.175781 0 L 6.175781 -14.460938 L 2.097656 -14.460938 Z M 2.097656 0 " />
            </g>
        </g>
    </g>
    <g fill="#ffffff" fill-opacity="1">
        <g transform="translate(117.955302, 26.797122)">
            <g>
                <path d="M 2.097656 0 L 6.191406 0 L 6.191406 -21.609375 L 2.097656 -21.609375 Z M 2.097656 0 " />
            </g>
        </g>
    </g>
    <g fill="#ffffff" fill-opacity="1">
        <g transform="translate(126.239841, 26.797122)">
            <g>
                <path d="M 2.097656 0 L 6.191406 0 L 6.191406 -21.609375 L 2.097656 -21.609375 Z M 2.097656 0 " />
            </g>
        </g>
    </g>
    <g fill="#ffffff" fill-opacity="1">
        <g transform="translate(134.52438, 26.797122)">
            <g>
                <path d="M 13.957031 -3.515625 L 13.957031 -9.523438 C 13.957031 -13.886719 10.777344 -14.742188 7.878906 -14.742188 C 4.039062 -14.742188 1.84375 -13.378906 1.238281 -10.382812 L 4.824219 -9.734375 C 5.078125 -11.367188 6.191406 -11.945312 7.652344 -11.945312 C 8.792969 -11.945312 10.085938 -11.550781 10.085938 -10.128906 C 10.085938 -9.539062 9.722656 -9.1875 8.695312 -8.949219 L 6.316406 -8.414062 C 3.292969 -7.75 1.054688 -6.738281 1.054688 -3.742188 C 1.054688 -0.730469 3.277344 0.28125 5.558594 0.28125 C 7.246094 0.28125 9.117188 -0.265625 10.199219 -1.574219 L 10.523438 0 L 14.308594 0 L 14.308594 -0.394531 C 14.054688 -1.210938 13.957031 -1.898438 13.957031 -3.515625 Z M 6.765625 -2.265625 C 5.738281 -2.265625 4.925781 -2.785156 4.925781 -3.910156 C 4.925781 -5.007812 5.585938 -5.542969 6.867188 -5.851562 L 10.296875 -6.824219 C 10.296875 -3.699219 8.707031 -2.265625 6.765625 -2.265625 Z M 6.765625 -2.265625 " />
            </g>
        </g>
    </g>
    <g fill="#00aeef" fill-opacity="1">
        <g transform="translate(37.772716, 27.164809)">
            <g>
                <path d="M 5.757812 0.28125 C 9.464844 0.28125 12.011719 -1.953125 12.011719 -6.140625 L 12.011719 -20.441406 L 7.765625 -20.441406 L 7.765625 -6.933594 C 7.765625 -4.542969 6.917969 -3.535156 5.25 -3.535156 C 4.132812 -3.535156 3.15625 -3.917969 2.152344 -4.625 L 0.355469 -1.132812 C 2.25 -0.140625 4.171875 0.28125 5.757812 0.28125 Z M 5.757812 0.28125 " />
            </g>
        </g>
    </g>
    <g fill="#ffffff" fill-opacity="1">
        <g transform="translate(52.089531, 27.164809)">
            <g>
                <path d="M 8.882812 0.28125 C 13.554688 0.28125 16.863281 -2.53125 16.863281 -7.285156 C 16.863281 -12.011719 13.566406 -14.839844 8.882812 -14.839844 C 4.230469 -14.839844 0.917969 -12.011719 0.917969 -7.285156 C 0.917969 -2.53125 4.257812 0.28125 8.882812 0.28125 Z M 8.84375 -2.957031 C 6.5625 -2.957031 4.964844 -4.683594 4.964844 -7.285156 C 4.964844 -9.890625 6.5625 -11.613281 8.84375 -11.613281 C 11.203125 -11.613281 12.816406 -9.890625 12.816406 -7.285156 C 12.816406 -4.683594 11.203125 -2.957031 8.84375 -2.957031 Z M 8.84375 -2.957031 " />
            </g>
        </g>
    </g>
    <g fill="#ffffff" fill-opacity="1">
        <g transform="translate(69.868504, 27.164809)">
            <g>
                <path d="M 10.652344 -14.828125 C 8.730469 -14.828125 7.03125 -14.089844 6.183594 -12.773438 L 6.183594 -21.730469 L 2.109375 -21.730469 L 2.109375 0 L 5.96875 0 L 6.070312 -1.894531 C 6.890625 -0.46875 8.644531 0.339844 10.652344 0.339844 C 14.472656 0.339844 17.640625 -2.488281 17.640625 -7.242188 C 17.640625 -11.996094 14.472656 -14.828125 10.652344 -14.828125 Z M 9.703125 -3.042969 C 7.539062 -3.042969 5.855469 -4.695312 5.855469 -7.242188 C 5.855469 -9.789062 7.554688 -11.460938 9.703125 -11.460938 C 11.871094 -11.460938 13.566406 -9.859375 13.566406 -7.242188 C 13.566406 -4.640625 11.871094 -3.042969 9.703125 -3.042969 Z M 9.703125 -3.042969 " />
            </g>
        </g>
    </g>
    <g clip-path="url(#af2dd041fb)">
        <path fill="#00aeef" d="M 10.84375 25.683594 C 13.289062 26.246094 16.152344 26.570312 19.21875 26.570312 C 22.285156 26.570312 25.152344 26.246094 27.597656 25.683594 C 29.53125 25.238281 31.199219 24.644531 32.488281 23.941406 C 32.640625 23.800781 32.773438 23.65625 32.890625 23.507812 C 31.550781 24.308594 29.734375 24.984375 27.597656 25.476562 C 25.152344 26.039062 22.285156 26.363281 19.21875 26.363281 C 16.152344 26.363281 13.289062 26.039062 10.84375 25.476562 C 8.703125 24.984375 6.890625 24.308594 5.550781 23.507812 C 5.667969 23.65625 5.800781 23.800781 5.953125 23.941406 C 7.242188 24.644531 8.910156 25.238281 10.84375 25.683594 Z M 10.84375 25.683594 " fill-opacity="1" fill-rule="nonzero" />
    </g>
    <g clip-path="url(#0e2de9e386)">
        <path fill="#00aeef" d="M 8.832031 26.398438 C 11.433594 27.445312 15.125 28.101562 19.21875 28.101562 C 23.316406 28.101562 27.007812 27.445312 29.609375 26.398438 C 30.328125 26.109375 30.960938 25.789062 31.5 25.449219 C 32.082031 25.078125 32.554688 24.675781 32.890625 24.253906 C 32.761719 24.332031 32.628906 24.40625 32.488281 24.480469 C 31.199219 25.183594 29.53125 25.777344 27.597656 26.222656 C 25.152344 26.785156 22.285156 27.109375 19.21875 27.109375 C 16.152344 27.109375 13.289062 26.785156 10.84375 26.222656 C 8.910156 25.777344 7.242188 25.183594 5.953125 24.480469 C 5.8125 24.40625 5.679688 24.332031 5.550781 24.253906 C 5.886719 24.675781 6.355469 25.078125 6.941406 25.449219 C 7.476562 25.789062 8.113281 26.109375 8.832031 26.398438 Z M 8.832031 26.398438 " fill-opacity="1" fill-rule="nonzero" />
    </g>
    <path fill="#00aeef" d="M 23.199219 22.742188 L 25.351562 24.832031 L 27.503906 22.742188 C 27.503906 22.742188 27.71875 21.949219 27.902344 20.929688 C 27.925781 20.8125 27.945312 20.691406 27.964844 20.570312 C 28.152344 19.457031 28.273438 18.167969 28.058594 17.355469 C 27.988281 17.089844 27.882812 16.875 27.730469 16.734375 C 26.789062 15.851562 26.230469 15.949219 26.152344 14.613281 C 26.652344 14.183594 26.988281 13.375 26.988281 12.445312 C 26.988281 11.070312 26.253906 9.957031 25.351562 9.957031 C 24.445312 9.957031 23.710938 11.070312 23.710938 12.445312 C 23.710938 13.375 24.050781 14.183594 24.546875 14.613281 C 24.46875 15.949219 23.914062 15.851562 22.96875 16.734375 C 22.941406 16.761719 22.917969 16.789062 22.894531 16.820312 C 23.101562 17.816406 22.957031 19.285156 22.742188 20.570312 C 22.742188 20.578125 22.742188 20.585938 22.738281 20.59375 C 22.9375 21.769531 23.199219 22.742188 23.199219 22.742188 Z M 24.90625 15.746094 C 24.90625 15.746094 25.074219 15.898438 25.296875 15.945312 C 25.316406 15.949219 25.335938 15.953125 25.351562 15.957031 C 25.367188 15.953125 25.386719 15.949219 25.40625 15.945312 C 25.628906 15.898438 25.796875 15.746094 25.796875 15.746094 L 25.890625 16.304688 C 25.890625 16.304688 25.886719 16.308594 25.878906 16.316406 L 25.875 16.289062 C 25.875 16.289062 25.769531 16.390625 25.679688 16.441406 C 25.65625 16.453125 25.636719 16.464844 25.617188 16.46875 C 25.59375 16.472656 25.570312 16.476562 25.550781 16.476562 C 25.542969 16.480469 25.53125 16.480469 25.523438 16.480469 C 25.453125 16.488281 25.398438 16.488281 25.367188 16.484375 L 25.367188 16.480469 C 25.367188 16.480469 25.359375 16.480469 25.351562 16.484375 C 25.339844 16.480469 25.335938 16.480469 25.335938 16.480469 L 25.335938 16.484375 C 25.335938 16.484375 25.332031 16.484375 25.332031 16.484375 C 25.300781 16.488281 25.25 16.488281 25.179688 16.480469 C 25.167969 16.480469 25.160156 16.480469 25.148438 16.476562 C 25.128906 16.476562 25.109375 16.472656 25.085938 16.46875 C 25.066406 16.464844 25.042969 16.453125 25.019531 16.441406 C 24.929688 16.390625 24.824219 16.289062 24.824219 16.289062 L 24.820312 16.316406 C 24.816406 16.308594 24.8125 16.304688 24.8125 16.304688 Z M 24.824219 16.65625 L 24.828125 16.628906 C 24.828125 16.628906 24.933594 16.730469 25.023438 16.78125 C 25.042969 16.796875 25.066406 16.804688 25.085938 16.808594 C 25.109375 16.8125 25.128906 16.816406 25.148438 16.816406 C 25.160156 16.820312 25.171875 16.820312 25.179688 16.820312 C 25.25 16.828125 25.300781 16.828125 25.332031 16.824219 C 25.335938 16.824219 25.335938 16.824219 25.335938 16.824219 L 25.335938 16.820312 C 25.335938 16.820312 25.339844 16.820312 25.351562 16.824219 C 25.359375 16.820312 25.367188 16.820312 25.367188 16.820312 L 25.367188 16.824219 C 25.398438 16.828125 25.453125 16.828125 25.523438 16.820312 C 25.53125 16.820312 25.542969 16.820312 25.550781 16.816406 C 25.574219 16.816406 25.59375 16.8125 25.617188 16.808594 C 25.636719 16.804688 25.65625 16.796875 25.679688 16.78125 C 25.769531 16.730469 25.875 16.628906 25.875 16.628906 L 25.878906 16.65625 L 26.203125 20.570312 L 26.402344 22.984375 L 25.367188 24.667969 L 24.296875 23.0625 L 24.5 20.570312 Z M 24.824219 16.65625 " fill-opacity="1" fill-rule="nonzero" />
    <g clip-path="url(#d43b2b18cb)">
        <path fill="#00aeef" d="M 7.964844 24.386719 L 9.835938 22.570312 C 9.835938 22.570312 10.03125 21.847656 10.195312 20.929688 C 10.175781 20.8125 10.15625 20.691406 10.132812 20.570312 C 9.949219 19.457031 9.824219 18.167969 10.042969 17.355469 C 10.039062 17.351562 10.039062 17.347656 10.035156 17.347656 C 9.214844 16.578125 8.730469 16.664062 8.660156 15.5 C 9.09375 15.128906 9.386719 14.421875 9.386719 13.613281 C 9.386719 12.417969 8.75 11.449219 7.964844 11.449219 C 7.179688 11.449219 6.539062 12.417969 6.539062 13.613281 C 6.539062 14.421875 6.832031 15.128906 7.265625 15.5 C 7.199219 16.664062 6.714844 16.578125 5.894531 17.347656 C 5.246094 17.953125 5.550781 20.074219 5.828125 21.417969 C 5.964844 22.089844 6.09375 22.570312 6.09375 22.570312 Z M 7.578125 16.488281 C 7.578125 16.488281 7.722656 16.621094 7.917969 16.660156 C 7.9375 16.664062 7.949219 16.667969 7.964844 16.667969 C 7.980469 16.667969 7.996094 16.664062 8.011719 16.660156 C 8.207031 16.617188 8.351562 16.488281 8.351562 16.488281 L 8.433594 16.972656 C 8.433594 16.972656 8.429688 16.976562 8.425781 16.980469 L 8.421875 16.957031 C 8.421875 16.957031 8.328125 17.046875 8.25 17.089844 C 8.230469 17.101562 8.210938 17.109375 8.195312 17.113281 C 8.175781 17.117188 8.15625 17.121094 8.140625 17.121094 C 8.128906 17.125 8.121094 17.125 8.113281 17.125 C 8.054688 17.132812 8.007812 17.128906 7.980469 17.128906 C 7.980469 17.128906 7.976562 17.128906 7.976562 17.128906 L 7.976562 17.125 C 7.976562 17.125 7.972656 17.125 7.964844 17.128906 C 7.957031 17.128906 7.949219 17.125 7.949219 17.125 L 7.949219 17.128906 C 7.921875 17.128906 7.875 17.132812 7.816406 17.125 C 7.804688 17.125 7.796875 17.125 7.789062 17.121094 C 7.769531 17.121094 7.753906 17.117188 7.734375 17.113281 C 7.714844 17.109375 7.695312 17.101562 7.675781 17.089844 C 7.597656 17.046875 7.507812 16.957031 7.507812 16.957031 L 7.503906 16.980469 C 7.496094 16.976562 7.496094 16.972656 7.496094 16.972656 Z M 7.503906 17.277344 L 7.507812 17.253906 C 7.507812 17.253906 7.601562 17.34375 7.679688 17.386719 C 7.699219 17.398438 7.71875 17.40625 7.734375 17.410156 C 7.753906 17.414062 7.773438 17.414062 7.789062 17.417969 C 7.800781 17.417969 7.808594 17.421875 7.816406 17.421875 C 7.875 17.425781 7.921875 17.425781 7.949219 17.425781 C 7.949219 17.425781 7.953125 17.425781 7.953125 17.425781 L 7.953125 17.421875 C 7.953125 17.421875 7.957031 17.421875 7.964844 17.421875 C 7.972656 17.421875 7.980469 17.421875 7.980469 17.421875 L 7.980469 17.425781 C 8.007812 17.425781 8.054688 17.425781 8.113281 17.421875 C 8.125 17.421875 8.132812 17.417969 8.140625 17.417969 C 8.160156 17.414062 8.175781 17.414062 8.195312 17.410156 C 8.214844 17.40625 8.234375 17.398438 8.253906 17.386719 C 8.332031 17.34375 8.421875 17.253906 8.421875 17.253906 L 8.425781 17.277344 L 8.695312 20.570312 L 8.882812 22.847656 L 7.953125 24.242188 L 7.050781 22.78125 L 7.230469 20.570312 Z M 7.503906 17.277344 " fill-opacity="1" fill-rule="nonzero" />
    </g>
    <path fill="#00aeef" d="M 10.9375 22.742188 L 13.089844 24.832031 L 15.242188 22.742188 C 15.242188 22.742188 15.464844 21.910156 15.65625 20.855469 C 15.640625 20.761719 15.625 20.667969 15.605469 20.570312 C 15.390625 19.25 15.242188 17.738281 15.472656 16.738281 C 15.472656 16.738281 15.472656 16.734375 15.472656 16.734375 C 14.527344 15.851562 13.96875 15.949219 13.890625 14.613281 C 14.390625 14.183594 14.726562 13.375 14.726562 12.445312 C 14.726562 11.070312 13.996094 9.957031 13.089844 9.957031 C 12.183594 9.957031 11.453125 11.070312 11.453125 12.445312 C 11.453125 13.375 11.789062 14.183594 12.289062 14.613281 C 12.210938 15.949219 11.652344 15.851562 10.707031 16.734375 C 10.558594 16.878906 10.453125 17.089844 10.382812 17.355469 C 10.164062 18.167969 10.289062 19.457031 10.472656 20.570312 C 10.496094 20.691406 10.515625 20.8125 10.535156 20.929688 C 10.722656 21.949219 10.9375 22.742188 10.9375 22.742188 Z M 12.644531 15.746094 C 12.644531 15.746094 12.8125 15.898438 13.035156 15.945312 C 13.054688 15.949219 13.074219 15.953125 13.089844 15.957031 C 13.105469 15.953125 13.125 15.949219 13.144531 15.945312 C 13.367188 15.898438 13.535156 15.746094 13.535156 15.746094 L 13.628906 16.304688 C 13.628906 16.304688 13.625 16.308594 13.617188 16.316406 L 13.613281 16.289062 C 13.613281 16.289062 13.507812 16.390625 13.417969 16.441406 C 13.394531 16.453125 13.375 16.464844 13.355469 16.46875 C 13.332031 16.472656 13.308594 16.476562 13.289062 16.476562 C 13.28125 16.480469 13.269531 16.480469 13.261719 16.480469 C 13.191406 16.488281 13.136719 16.488281 13.105469 16.484375 L 13.105469 16.480469 C 13.105469 16.480469 13.097656 16.480469 13.089844 16.484375 C 13.078125 16.480469 13.074219 16.480469 13.074219 16.480469 L 13.074219 16.484375 C 13.074219 16.484375 13.074219 16.484375 13.070312 16.484375 C 13.039062 16.488281 12.988281 16.488281 12.917969 16.480469 C 12.910156 16.480469 12.898438 16.480469 12.886719 16.476562 C 12.867188 16.476562 12.847656 16.472656 12.824219 16.46875 C 12.804688 16.464844 12.78125 16.453125 12.757812 16.441406 C 12.667969 16.390625 12.566406 16.289062 12.566406 16.289062 L 12.558594 16.316406 C 12.554688 16.308594 12.550781 16.304688 12.550781 16.304688 Z M 12.5625 16.65625 L 12.566406 16.628906 C 12.566406 16.628906 12.671875 16.730469 12.761719 16.78125 C 12.78125 16.796875 12.804688 16.804688 12.824219 16.808594 C 12.847656 16.8125 12.867188 16.816406 12.890625 16.816406 C 12.898438 16.820312 12.910156 16.820312 12.917969 16.820312 C 12.988281 16.828125 13.042969 16.828125 13.074219 16.824219 L 13.074219 16.820312 C 13.074219 16.820312 13.082031 16.820312 13.089844 16.824219 C 13.097656 16.820312 13.105469 16.820312 13.105469 16.820312 L 13.105469 16.824219 C 13.136719 16.828125 13.191406 16.828125 13.261719 16.820312 C 13.269531 16.820312 13.28125 16.820312 13.289062 16.816406 C 13.3125 16.816406 13.332031 16.8125 13.355469 16.808594 C 13.375 16.804688 13.394531 16.796875 13.417969 16.78125 C 13.507812 16.730469 13.613281 16.628906 13.613281 16.628906 L 13.617188 16.65625 L 13.9375 20.570312 L 14.140625 23.0625 L 13.074219 24.667969 L 12.035156 22.984375 L 12.238281 20.570312 Z M 12.5625 16.65625 " fill-opacity="1" fill-rule="nonzero" />
    <g clip-path="url(#56f5466ba7)">
        <path fill="#f7941e" d="M 16.523438 23.277344 L 19.175781 25.851562 L 21.824219 23.277344 C 21.824219 23.277344 22.15625 22.058594 22.398438 20.59375 C 22.402344 20.585938 22.402344 20.578125 22.402344 20.570312 C 22.617188 19.285156 22.761719 17.816406 22.554688 16.820312 C 22.472656 16.410156 22.328125 16.078125 22.109375 15.875 C 20.945312 14.785156 20.261719 14.90625 20.164062 13.257812 C 20.777344 12.730469 21.195312 11.730469 21.195312 10.585938 C 21.195312 8.890625 20.289062 7.519531 19.175781 7.519531 C 18.0625 7.519531 17.15625 8.890625 17.15625 10.585938 C 17.15625 11.730469 17.574219 12.730469 18.1875 13.257812 C 18.089844 14.902344 17.402344 14.785156 16.242188 15.875 C 16.035156 16.066406 15.898438 16.367188 15.8125 16.738281 C 15.582031 17.738281 15.730469 19.25 15.949219 20.570312 C 15.964844 20.667969 15.980469 20.761719 15.996094 20.855469 C 16.234375 22.199219 16.523438 23.277344 16.523438 23.277344 Z M 18.625 14.65625 C 18.625 14.65625 18.832031 14.84375 19.105469 14.898438 C 19.132812 14.90625 19.15625 14.910156 19.175781 14.914062 C 19.195312 14.910156 19.21875 14.90625 19.242188 14.898438 C 19.519531 14.84375 19.726562 14.65625 19.726562 14.65625 L 19.839844 15.34375 C 19.839844 15.34375 19.835938 15.347656 19.828125 15.355469 L 19.820312 15.320312 C 19.820312 15.320312 19.691406 15.449219 19.582031 15.511719 C 19.550781 15.527344 19.523438 15.539062 19.5 15.546875 C 19.472656 15.550781 19.445312 15.554688 19.421875 15.558594 C 19.410156 15.558594 19.398438 15.558594 19.386719 15.5625 C 19.300781 15.570312 19.234375 15.566406 19.195312 15.566406 C 19.195312 15.566406 19.195312 15.566406 19.191406 15.566406 L 19.191406 15.5625 C 19.191406 15.5625 19.1875 15.5625 19.175781 15.5625 C 19.164062 15.5625 19.15625 15.5625 19.15625 15.5625 L 19.15625 15.566406 C 19.15625 15.566406 19.152344 15.566406 19.152344 15.566406 C 19.113281 15.566406 19.050781 15.570312 18.964844 15.5625 C 18.953125 15.558594 18.941406 15.558594 18.925781 15.558594 C 18.902344 15.554688 18.875 15.550781 18.847656 15.546875 C 18.824219 15.539062 18.796875 15.527344 18.769531 15.511719 C 18.660156 15.449219 18.527344 15.320312 18.527344 15.320312 L 18.523438 15.355469 C 18.515625 15.347656 18.511719 15.34375 18.511719 15.34375 Z M 18.523438 15.773438 L 18.53125 15.742188 C 18.53125 15.742188 18.660156 15.867188 18.769531 15.929688 C 18.796875 15.949219 18.824219 15.960938 18.847656 15.964844 C 18.878906 15.96875 18.902344 15.972656 18.929688 15.976562 C 18.941406 15.976562 18.953125 15.976562 18.964844 15.980469 C 19.050781 15.988281 19.117188 15.984375 19.15625 15.984375 L 19.15625 15.980469 C 19.15625 15.980469 19.164062 15.980469 19.175781 15.984375 C 19.1875 15.980469 19.195312 15.980469 19.195312 15.980469 L 19.195312 15.984375 C 19.195312 15.984375 19.195312 15.984375 19.199219 15.984375 C 19.234375 15.988281 19.300781 15.988281 19.386719 15.980469 C 19.398438 15.976562 19.410156 15.976562 19.421875 15.976562 C 19.449219 15.972656 19.476562 15.96875 19.503906 15.964844 C 19.527344 15.960938 19.554688 15.949219 19.582031 15.929688 C 19.691406 15.867188 19.820312 15.742188 19.820312 15.742188 L 19.828125 15.773438 L 20.226562 20.570312 L 20.472656 23.578125 L 19.199219 25.648438 L 17.878906 23.671875 L 18.132812 20.570312 Z M 18.523438 15.773438 " fill-opacity="1" fill-rule="nonzero" />
    </g>
    <path fill="#00aeef" d="M 32.546875 17.347656 C 31.726562 16.578125 31.242188 16.664062 31.171875 15.5 C 31.605469 15.128906 31.898438 14.421875 31.898438 13.613281 C 31.898438 12.417969 31.261719 11.449219 30.476562 11.449219 C 29.6875 11.449219 29.050781 12.417969 29.050781 13.613281 C 29.050781 14.421875 29.34375 15.128906 29.777344 15.5 C 29.707031 16.664062 29.222656 16.578125 28.402344 17.347656 C 28.402344 17.347656 28.398438 17.351562 28.398438 17.355469 C 28.613281 18.167969 28.492188 19.457031 28.304688 20.570312 C 28.285156 20.691406 28.265625 20.8125 28.242188 20.929688 C 28.40625 21.847656 28.605469 22.570312 28.605469 22.570312 L 30.472656 24.386719 L 32.34375 22.570312 C 32.34375 22.570312 32.472656 22.089844 32.613281 21.417969 C 32.886719 20.074219 33.191406 17.953125 32.546875 17.347656 Z M 30.085938 16.488281 C 30.085938 16.488281 30.234375 16.621094 30.425781 16.660156 C 30.445312 16.664062 30.460938 16.667969 30.476562 16.667969 C 30.488281 16.667969 30.503906 16.664062 30.523438 16.660156 C 30.71875 16.617188 30.863281 16.488281 30.863281 16.488281 L 30.945312 16.972656 C 30.945312 16.972656 30.941406 16.976562 30.933594 16.980469 L 30.929688 16.957031 C 30.929688 16.957031 30.839844 17.046875 30.761719 17.089844 C 30.742188 17.101562 30.722656 17.109375 30.707031 17.113281 C 30.6875 17.117188 30.667969 17.121094 30.648438 17.121094 C 30.640625 17.125 30.632812 17.125 30.625 17.125 C 30.5625 17.132812 30.515625 17.128906 30.492188 17.128906 C 30.488281 17.128906 30.488281 17.128906 30.488281 17.128906 L 30.488281 17.125 C 30.488281 17.125 30.484375 17.125 30.476562 17.128906 C 30.464844 17.128906 30.460938 17.125 30.460938 17.125 L 30.460938 17.128906 C 30.433594 17.128906 30.386719 17.132812 30.324219 17.125 C 30.316406 17.125 30.308594 17.125 30.300781 17.121094 C 30.28125 17.121094 30.261719 17.117188 30.242188 17.113281 C 30.226562 17.109375 30.207031 17.101562 30.1875 17.089844 C 30.109375 17.046875 30.019531 16.957031 30.019531 16.957031 L 30.015625 16.980469 C 30.007812 16.976562 30.003906 16.972656 30.003906 16.972656 Z M 30.492188 24.242188 L 29.558594 22.847656 L 29.746094 20.570312 L 30.015625 17.277344 L 30.019531 17.253906 C 30.019531 17.253906 30.109375 17.34375 30.1875 17.386719 C 30.210938 17.398438 30.226562 17.40625 30.246094 17.410156 C 30.265625 17.414062 30.28125 17.414062 30.300781 17.417969 C 30.308594 17.417969 30.320312 17.421875 30.328125 17.421875 C 30.386719 17.425781 30.433594 17.425781 30.460938 17.425781 C 30.460938 17.425781 30.460938 17.425781 30.464844 17.425781 L 30.464844 17.421875 C 30.464844 17.421875 30.46875 17.421875 30.476562 17.421875 C 30.484375 17.421875 30.488281 17.421875 30.488281 17.421875 L 30.488281 17.425781 C 30.488281 17.425781 30.492188 17.425781 30.492188 17.425781 C 30.519531 17.425781 30.566406 17.425781 30.625 17.421875 C 30.632812 17.421875 30.644531 17.417969 30.652344 17.417969 C 30.667969 17.414062 30.6875 17.414062 30.707031 17.410156 C 30.722656 17.40625 30.742188 17.398438 30.761719 17.386719 C 30.839844 17.34375 30.933594 17.253906 30.933594 17.253906 L 30.9375 17.277344 L 31.210938 20.570312 L 31.390625 22.78125 Z M 30.492188 24.242188 " fill-opacity="1" fill-rule="nonzero" />
</svg>